<?xml version="1.0" standalone="no"?>
<!DOCTYPE svg PUBLIC "-//W3C//DTD SVG 20010904//EN"
 "http://www.w3.org/TR/2001/REC-SVG-20010904/DTD/svg10.dtd">
<svg version="1.0" xmlns="http://www.w3.org/2000/svg"
 width="306.000000pt" height="306.000000pt" viewBox="0 0 306.000000 306.000000"
 preserveAspectRatio="xMidYMid meet">
<metadata>
Created by potrace 1.14, written by Peter Selinger 2001-2017
</metadata>
<g transform="translate(0.000000,306.000000) scale(0.100000,-0.100000)"
fill="#000000" stroke="none">
<path d="M1467 3054 c-1 -1 -36 -4 -77 -8 -76 -6 -92 -8 -190 -27 -211 -42
-479 -173 -652 -319 -87 -73 -197 -193 -264 -287 -79 -110 -180 -304 -171
-328 12 -31 31 -10 84 95 80 156 155 262 267 374 112 113 157 151 262 219 172
111 354 181 584 222 73 13 336 13 421 0 428 -65 789 -292 1029 -646 23 -32 66
-109 96 -170 52 -103 74 -127 82 -86 2 9 -19 61 -47 116 -192 385 -528 665
-941 784 -89 26 -109 30 -226 47 -61 9 -250 19 -257 14z"/>
<path d="M2043 2378 c-4 -7 -22 -67 -39 -133 -21 -82 -35 -119 -44 -117 -32 7
-68 -10 -84 -41 -18 -37 -306 -1194 -306 -1232 0 -28 32 -65 56 -65 10 0 14
-6 10 -17 -9 -36 -46 -183 -47 -190 -1 -13 -169 703 -169 720 0 3 -8 7 -17 9
-14 2 -26 42 -59 185 l-42 182 38 78 c143 292 106 507 -96 568 -125 38 -255
-19 -316 -139 -25 -48 -29 -135 -8 -186 33 -85 162 -232 263 -300 34 -24 38
-31 63 -135 14 -60 28 -121 30 -135 5 -25 21 -90 30 -122 4 -12 0 -18 -11 -18
-11 0 -14 -7 -10 -22 2 -13 28 -122 56 -243 28 -121 53 -230 55 -242 10 -52
55 -241 65 -270 12 -36 32 -41 87 -22 21 7 42 7 67 0 53 -14 65 4 99 146 22
89 33 120 43 116 23 -9 62 7 79 32 13 20 24 58 49 165 2 8 62 250 134 538 72
287 131 530 131 540 0 22 -36 62 -55 62 -20 0 -19 7 15 140 17 63 30 118 30
122 0 31 -80 52 -97 26z m65 -20 c7 -9 1 -50 -20 -134 -30 -117 -32 -121 -55
-116 -14 3 -27 10 -29 17 -4 10 34 184 51 233 2 6 13 12 23 12 11 0 24 -6 30
-12z m-930 -63 c125 -53 168 -212 125 -470 -18 -105 -28 -138 -37 -115 -8 21
-136 578 -136 592 0 11 6 10 48 -7z m97 -6 c124 -65 154 -161 111 -354 -7 -33
-58 -159 -69 -170 -7 -7 -8 -6 -4 1 14 24 22 117 21 239 0 117 -3 136 -26 186
-14 30 -41 70 -59 87 -39 37 -30 41 26 11z m-142 -106 c15 -65 45 -196 67
-292 48 -207 48 -216 15 -176 -159 191 -236 406 -183 510 12 24 59 75 68 75 4
0 19 -53 33 -117z m-113 65 c-57 -100 -23 -257 94 -431 38 -58 41 -64 18 -48
-44 32 -117 112 -154 171 -75 119 -69 209 20 303 20 20 37 37 39 37 1 0 -6
-15 -17 -32z m975 -156 c22 -6 53 -13 69 -16 17 -3 39 -14 49 -25 19 -19 18
-25 -133 -633 -156 -632 -163 -653 -208 -643 -144 34 -181 51 -182 82 0 37
303 1219 316 1235 17 18 24 18 89 0z m-688 -533 c13 -52 25 -107 28 -124 3
-16 10 -46 15 -65 14 -49 12 -70 -5 -70 -15 0 -24 25 -49 145 -9 39 -22 97
-30 130 -20 77 -19 84 1 81 14 -2 23 -25 40 -97z m98 -291 c60 -255 165 -721
165 -733 0 -16 -5 -19 -53 -29 -34 -8 -34 -9 -81 199 -20 88 -56 247 -81 353
-25 106 -45 197 -45 202 0 6 51 25 82 29 4 1 10 -9 13 -21z m310 -509 c3 -4
-4 -45 -15 -91 -43 -171 -38 -160 -68 -156 -32 4 -33 17 -8 123 34 145 33 143
61 137 14 -2 28 -8 30 -13z"/>
<path d="M114 966 c-12 -30 103 -240 206 -376 74 -96 224 -240 330 -315 110
-78 261 -153 395 -197 113 -38 123 -40 260 -63 77 -13 392 -14 441 -2 12 3 39
8 59 11 371 59 763 315 982 641 89 132 160 274 150 299 -13 33 -33 13 -72 -71
-132 -286 -389 -549 -678 -694 -354 -179 -806 -203 -1171 -65 -152 58 -254
115 -381 210 -189 142 -342 329 -447 546 -41 85 -62 107 -74 76z"/>
</g>
</svg>
